<?xml version="1.0" encoding="UTF-8" standalone="no"?>
<!-- Created with Inkscape (http://www.inkscape.org/) -->

<svg
   xmlns:osb="http://www.openswatchbook.org/uri/2009/osb"
   xmlns:dc="http://purl.org/dc/elements/1.1/"
   xmlns:cc="http://creativecommons.org/ns#"
   xmlns:rdf="http://www.w3.org/1999/02/22-rdf-syntax-ns#"
   xmlns:svg="http://www.w3.org/2000/svg"
   xmlns="http://www.w3.org/2000/svg"
   xmlns:xlink="http://www.w3.org/1999/xlink"
   xmlns:sodipodi="http://sodipodi.sourceforge.net/DTD/sodipodi-0.dtd"
   xmlns:inkscape="http://www.inkscape.org/namespaces/inkscape"
   width="48px"
   height="48px"
   id="svg3060"
   version="1.1"
   inkscape:version="0.48.4 r9939"
   sodipodi:docname="logo.svg">
  <defs
     id="defs3062">
    <linearGradient
       inkscape:collect="always"
       id="linearGradient5243">
      <stop
         style="stop-color:#000000;stop-opacity:1;"
         offset="0"
         id="stop5245" />
      <stop
         style="stop-color:#000000;stop-opacity:0;"
         offset="1"
         id="stop5247" />
    </linearGradient>
    <linearGradient
       id="linearGradient5211"
       osb:paint="solid">
      <stop
         style="stop-color:#000000;stop-opacity:1;"
         offset="0"
         id="stop5213" />
    </linearGradient>
    <inkscape:perspective
       sodipodi:type="inkscape:persp3d"
       inkscape:vp_x="0 : 24 : 1"
       inkscape:vp_y="0 : 1000 : 0"
       inkscape:vp_z="48 : 24 : 1"
       inkscape:persp3d-origin="24 : 16 : 1"
       id="perspective3134" />
    <inkscape:path-effect
       effect="bend_path"
       id="path-effect3132"
       is_visible="true"
       bendpath="m -22.008284,47.714286 98.873709,0"
       prop_scale="1"
       scale_y_rel="false"
       vertical="false" />
    <radialGradient
       inkscape:collect="always"
       xlink:href="#linearGradient5243"
       id="radialGradient5249"
       cx="121.36396"
       cy="27.47536"
       fx="121.36396"
       fy="27.47536"
       r="112.61761"
       gradientTransform="matrix(1,0,0,1.2354888,0,-6.4701402)"
       gradientUnits="userSpaceOnUse" />
    <radialGradient
       inkscape:collect="always"
       xlink:href="#linearGradient5243"
       id="radialGradient5251"
       gradientUnits="userSpaceOnUse"
       gradientTransform="matrix(1,0,0,1.2354888,0,-6.4701402)"
       cx="121.36396"
       cy="27.47536"
       fx="121.36396"
       fy="27.47536"
       r="112.61761" />
  </defs>
  <sodipodi:namedview
     id="base"
     pagecolor="#1110a9"
     bordercolor="#666666"
     borderopacity="1.0"
     inkscape:pageopacity="1"
     inkscape:pageshadow="2"
     inkscape:zoom="2.4748737"
     inkscape:cx="-117.95948"
     inkscape:cy="-28.025865"
     inkscape:current-layer="g3150"
     showgrid="true"
     inkscape:grid-bbox="true"
     inkscape:document-units="px"
     inkscape:window-width="1920"
     inkscape:window-height="1014"
     inkscape:window-x="0"
     inkscape:window-y="27"
     inkscape:window-maximized="1"
     inkscape:snap-page="false" />
  <metadata
     id="metadata3065">
    <rdf:RDF>
      <cc:Work
         rdf:about="">
        <dc:format>image/svg+xml</dc:format>
        <dc:type
           rdf:resource="http://purl.org/dc/dcmitype/StillImage" />
        <dc:title></dc:title>
      </cc:Work>
    </rdf:RDF>
  </metadata>
  <g
     id="layer1"
     inkscape:label="Layer 1"
     inkscape:groupmode="layer">
    <g
       id="g3150"
       transform="matrix(0.15216489,0,0,0.15216489,5.8515432,19.616077)">
      <g
         id="g3953">
        <g
           id="g3164">
          <g
             id="g3968" />
        </g>
      </g>
      <path
         style="fill:#ffffff;fill-opacity:1;fill-rule:nonzero;stroke:none"
         d="M 113.34146,148.48719 C 111.05555,147.62462 97.597609,137.72026 89.249536,130.75677 51.039534,98.884147 27.519152,63.623482 20.21953,27.270223 18.603868,19.22397 18.132191,1.867232 19.292511,-6.84224 c 4.460038,-33.477473 28.752624,-63.049577 61.75706,-75.178747 11.067607,-4.06736 19.083789,-5.41302 32.230469,-5.41048 16.73287,0.004 26.04961,1.89131 39.50395,8.00562 24.66745,11.210073 41.69677,28.888781 51.17311,53.12449 3.99031,10.205229 5.4682,19.500971 5.50035,34.596526 0.0292,13.86549 -1.20902,21.940612 -5.29754,34.538865 -8.05946,24.834246 -23.30046,48.28194 -46.44765,71.457936 -13.83198,13.84919 -32.47033,28.91999 -41.29839,33.39351 -1.20519,0.61071 -2.2456,1.09524 -2.31203,1.07673 -0.0664,-0.0185 -0.40862,-0.14227 -0.76038,-0.27503 l 0,0 z m 5.60876,-19.25038 c 10.37426,-6.06236 33.84629,-26.69126 44.55248,-39.155888 28.4988,-33.179605 40.35734,-67.60809 34.22757,-99.371793 -3.05497,-15.830567 -11.01004,-30.505331 -22.94345,-42.323973 -6.9434,-6.876604 -15.00401,-12.852612 -22.00283,-16.312544 -18.19202,-8.993389 -41.68806,-11.070069 -61.693295,-5.452701 -16.049103,4.506507 -31.709398,15.197548 -43.124687,29.440553 -8.184062,10.211359 -14.10004,23.417403 -16.326438,36.444972 -1.052905,6.16099 -1.250836,18.925994 -0.406362,26.207178 2.610974,22.512178 14.520762,46.94681 34.099523,69.960035 4.987525,5.862424 16.983034,17.837461 23.740416,23.699891 11.687773,10.13982 23.495593,18.48231 26.193903,18.50656 0.4728,0.005 2.13019,-0.73477 3.68317,-1.64229 l 0,0 z"
         id="path2993"
         inkscape:connector-curvature="0" />
      <path
         style="fill:#ffffff;fill-opacity:1;fill-rule:nonzero;stroke:none"
         d="m 152.89544,12.283582 c 0,21.647466 -17.54874,39.196205 -39.19621,39.196205 -21.647469,0 -39.196208,-17.548739 -39.196208,-39.196205 0,-21.6474656 17.548739,-39.196204 39.196208,-39.196204 21.64747,0 39.19621,17.5487384 39.19621,39.196204 z"
         id="path5283"
         inkscape:connector-curvature="0" />
      <path
         style="fill:#ffffff;fill-opacity:1;fill-rule:nonzero;stroke:none"
         d="m 107.99658,53.683012 c 4.98752,5.86242 16.98303,17.83746 23.74041,23.69989 11.68777,10.13982 22.50925,20.060951 26.93328,22.096808 0.52997,2.87326 -1.83816,14.31137 -1.90458,14.29286 -0.0664,-0.0184 -0.40864,-0.14228 -0.76039,-0.27502 -2.28591,-0.86257 -15.74385,-10.76693 -24.09192,-17.730418 C 93.703377,63.894502 74.752646,36.982351 74.486579,16.155022"
         id="path2993-6"
         inkscape:connector-curvature="0"
         sodipodi:nodetypes="cscccsc" />
      <path
         style="fill:#ffffff;fill-opacity:1;fill-rule:nonzero;stroke:none"
         d="m 119.53232,48.789022 c -4.98752,5.86242 4.92415,-19.338359 -1.83324,-13.475929 -11.68777,10.139819 -13.87915,4.128458 -18.303176,6.164315 -0.52995,2.873259 -3.472671,16.966786 -3.406251,16.948266 0.0664,-0.0184 5.415727,1.691659 5.767477,1.558909 2.28591,-0.86256 3.58281,20.718375 11.93088,13.75489 38.21001,-31.872631 39.08824,-41.651109 39.3543,-62.478439"
         id="path2993-6-7"
         inkscape:connector-curvature="0"
         sodipodi:nodetypes="cscccsc" />
    </g>
  </g>
</svg>
